<svg width="600" height="600" viewBox="0 0 600 600" fill="none" xmlns="http://www.w3.org/2000/svg">
<g clip-path="url(#clip0_1_26)">
<path fill-rule="evenodd" clip-rule="evenodd" d="M262.8 1.188C262.8 1.9965 262.271 2.4945 261.15 2.745C260.243 2.946 259.095 3.2085 258.6 3.3255C258.105 3.444 253.785 3.978 249 4.5135C243.798 5.0955 238.611 6.06 236.1 6.912C233.79 7.6965 229.354 8.7735 226.245 9.306C223.134 9.8385 219.015 10.9365 217.092 11.745C215.167 12.555 211.702 13.6155 209.391 14.1015C207.079 14.589 203.908 15.627 202.344 16.4115C200.779 17.1945 198.015 18.1725 196.2 18.585C194.385 18.9975 191.742 19.9965 190.326 20.8065C188.91 21.6165 186.345 22.689 184.626 23.1915C182.907 23.6925 180.339 24.774 178.921 25.593C177.502 26.4135 174.937 27.5685 173.221 28.158C171.504 28.749 169.074 29.928 167.82 30.78C166.567 31.6305 164.542 32.646 163.32 33.0375C162.099 33.429 160.29 34.3455 159.3 35.0745C158.31 35.8035 156.015 37.131 154.2 38.025C149.903 40.1415 144.726 43.155 142.483 44.844C141.502 45.5835 139.564 46.7985 138.178 47.544C136.791 48.2895 133.821 50.1855 131.579 51.7575C129.335 53.328 126.555 55.2735 125.4 56.079C122.206 58.308 119.031 60.6765 116.127 63C109.647 68.181 105.928 71.253 103.777 73.2C102.501 74.355 100.222 76.38 98.715 77.7C95.553 80.4675 80.901 95.1435 77.7495 98.7C76.581 100.02 74.6055 102.225 73.362 103.599C71.2695 105.91 63 116.127 63 116.127C60.6765 119.031 58.308 122.206 56.079 125.4C55.2735 126.555 53.328 129.335 51.7575 131.579C50.1855 133.821 48.2895 136.791 47.544 138.178C46.7985 139.564 45.5835 141.502 44.844 142.483C43.155 144.726 40.1415 149.903 38.025 154.2C37.131 156.015 35.8035 158.31 35.0745 159.3C34.3455 160.29 33.429 162.099 33.0375 163.32C32.646 164.542 31.6305 166.567 30.78 167.82C29.928 169.074 28.749 171.504 28.158 173.221C27.5685 174.937 26.4135 177.502 25.593 178.921C24.774 180.339 23.6925 182.907 23.1915 184.626C22.689 186.345 21.6165 188.91 20.8065 190.326C19.9965 191.742 18.9975 194.385 18.585 196.2C18.1725 198.015 17.1765 200.815 16.3695 202.425C15.564 204.033 14.511 207.239 14.0295 209.549C13.548 211.857 12.5055 215.286 11.7135 217.169C10.9215 219.05 9.8385 223.134 9.306 226.245C8.7735 229.354 7.6965 233.79 6.912 236.1C6.0645 238.596 5.088 243.831 4.5045 249C3.0945 261.486 2.7765 262.8 1.1595 262.8C0.0255001 262.8 0 263.632 0 300C0 336.681 0.0165 337.2 1.188 337.2C1.9965 337.2 2.4945 337.729 2.745 338.85C2.946 339.757 3.2085 340.905 3.3255 341.4C3.444 341.895 3.978 346.215 4.5135 351C5.0955 356.202 6.06 361.389 6.912 363.9C7.6965 366.21 8.7735 370.646 9.306 373.755C9.8385 376.866 10.9365 380.985 11.745 382.908C12.555 384.833 13.6155 388.298 14.1015 390.609C14.589 392.921 15.627 396.092 16.4115 397.656C17.1945 399.221 18.1725 401.985 18.585 403.8C18.9975 405.615 19.9965 408.258 20.8065 409.674C21.6165 411.09 22.689 413.655 23.1915 415.374C23.6925 417.093 24.774 419.661 25.593 421.078C26.4135 422.497 27.5685 425.063 28.158 426.779C28.749 428.496 29.928 430.926 30.78 432.18C31.6305 433.432 32.646 435.457 33.0375 436.68C33.429 437.901 34.3455 439.71 35.0745 440.7C35.8035 441.69 37.131 443.985 38.025 445.8C40.1415 450.098 43.155 455.274 44.844 457.516C45.5835 458.497 46.7985 460.436 47.544 461.822C48.2895 463.209 50.1855 466.179 51.7575 468.422C53.328 470.666 55.2735 473.445 56.079 474.6C58.308 477.793 60.6765 480.969 63 483.873C68.181 490.353 71.253 494.072 73.2 496.223C74.355 497.499 76.38 499.778 77.7 501.285C80.4675 504.447 95.1435 519.099 98.7 522.25C100.02 523.419 102.225 525.395 103.599 526.638C105.91 528.731 109.545 531.736 116.127 537C119.031 539.324 122.206 541.692 125.4 543.921C126.555 544.727 129.335 546.672 131.579 548.242C133.821 549.814 136.791 551.71 138.178 552.456C139.564 553.201 141.502 554.417 142.483 555.156C144.726 556.845 149.903 559.858 154.2 561.975C156.015 562.869 158.31 564.197 159.3 564.926C160.29 565.655 162.099 566.571 163.32 566.963C164.542 567.354 166.567 568.37 167.82 569.22C169.074 570.072 171.504 571.251 173.221 571.842C174.937 572.431 177.502 573.586 178.921 574.407C180.339 575.226 182.907 576.307 184.626 576.808C186.345 577.311 188.91 578.383 190.326 579.193C191.742 580.003 194.385 581.002 196.2 581.415C198.015 581.827 200.815 582.823 202.425 583.63C204.033 584.436 207.239 585.489 209.549 585.971C211.857 586.452 215.286 587.494 217.169 588.286C219.05 589.078 223.134 590.161 226.245 590.694C229.354 591.226 233.79 592.304 236.1 593.088C238.596 593.936 243.831 594.912 249 595.495C261.486 596.905 262.8 597.223 262.8 598.84C262.8 599.974 263.632 600 300 600C336.368 600 337.2 599.974 337.2 598.84C337.2 597.223 338.514 596.905 351 595.495C356.169 594.912 361.404 593.936 363.9 593.088C366.21 592.304 370.646 591.226 373.755 590.694C376.866 590.161 380.985 589.064 382.908 588.255C384.833 587.445 388.298 586.384 390.609 585.898C392.921 585.411 396.092 584.373 397.656 583.589C399.221 582.806 401.985 581.827 403.8 581.415C405.615 581.002 408.258 580.003 409.674 579.193C411.09 578.383 413.655 577.311 415.374 576.808C417.093 576.307 419.661 575.226 421.078 574.407C422.497 573.586 425.063 572.431 426.779 571.842C428.496 571.251 430.926 570.072 432.18 569.22C433.432 568.37 435.457 567.354 436.68 566.963C437.901 566.571 439.71 565.655 440.7 564.926C441.69 564.197 443.985 562.869 445.8 561.975C450.098 559.858 455.274 556.845 457.516 555.156C458.497 554.417 460.436 553.201 461.822 552.456C463.209 551.71 466.179 549.814 468.422 548.242C470.666 546.672 473.445 544.727 474.6 543.921C477.793 541.692 480.969 539.324 483.873 537C490.353 531.819 494.072 528.747 496.223 526.8C497.499 525.645 499.778 523.62 501.285 522.3C504.447 519.533 519.099 504.857 522.25 501.3C523.419 499.98 525.395 497.775 526.638 496.401C528.731 494.09 531.736 490.455 537 483.873C539.324 480.969 541.692 477.793 543.921 474.6C544.727 473.445 546.672 470.666 548.242 468.422C549.814 466.179 551.71 463.209 552.456 461.822C553.201 460.436 554.417 458.497 555.156 457.516C556.845 455.274 559.858 450.098 561.975 445.8C562.869 443.985 564.197 441.69 564.926 440.7C565.655 439.71 566.571 437.901 566.963 436.68C567.354 435.457 568.37 433.432 569.22 432.18C570.072 430.926 571.251 428.496 571.842 426.779C572.431 425.063 573.586 422.497 574.407 421.078C575.226 419.661 576.307 417.093 576.808 415.374C577.311 413.655 578.383 411.09 579.193 409.674C580.003 408.258 581.002 405.615 581.415 403.8C581.827 401.985 582.823 399.184 583.63 397.575C584.436 395.967 585.489 392.761 585.971 390.451C586.452 388.143 587.494 384.714 588.286 382.831C589.078 380.95 590.161 376.866 590.694 373.755C591.226 370.646 592.304 366.21 593.088 363.9C593.936 361.404 594.912 356.169 595.495 351C596.905 338.514 597.223 337.2 598.84 337.2C599.974 337.2 600 336.368 600 300C600 263.319 599.984 262.8 598.812 262.8C598.004 262.8 597.506 262.271 597.255 261.15C597.054 260.243 596.791 259.095 596.674 258.6C596.556 258.105 596.022 253.785 595.487 249C594.905 243.798 593.94 238.611 593.088 236.1C592.304 233.79 591.226 229.354 590.694 226.245C590.161 223.134 589.064 219.015 588.255 217.092C587.445 215.167 586.384 211.702 585.898 209.391C585.411 207.079 584.373 203.908 583.589 202.344C582.806 200.779 581.827 198.015 581.415 196.2C581.002 194.385 580.003 191.742 579.193 190.326C578.383 188.91 577.311 186.345 576.808 184.626C576.307 182.907 575.226 180.339 574.407 178.921C573.586 177.502 572.431 174.937 571.842 173.221C571.251 171.504 570.072 169.074 569.22 167.82C568.37 166.567 567.354 164.542 566.963 163.32C566.571 162.099 565.655 160.29 564.926 159.3C564.197 158.31 562.869 156.015 561.975 154.2C559.858 149.903 556.845 144.726 555.156 142.483C554.417 141.502 553.201 139.564 552.456 138.178C551.71 136.791 549.814 133.821 548.242 131.579C546.672 129.335 544.727 126.555 543.921 125.4C541.692 122.206 539.324 119.031 537 116.127C531.819 109.647 528.747 105.928 526.8 103.777C525.645 102.501 523.62 100.222 522.3 98.715C519.533 95.553 504.857 80.901 501.3 77.7495C499.98 76.581 497.775 74.6055 496.401 73.362C494.09 71.2695 490.455 68.2635 483.873 63C480.969 60.6765 477.793 58.308 474.6 56.079C473.445 55.2735 470.666 53.328 468.422 51.7575C466.179 50.1855 463.209 48.2895 461.822 47.544C460.436 46.7985 458.497 45.5835 457.516 44.844C455.274 43.155 450.098 40.1415 445.8 38.025C443.985 37.131 441.69 35.8035 440.7 35.0745C439.71 34.3455 437.901 33.429 436.68 33.0375C435.457 32.646 433.432 31.6305 432.18 30.78C430.926 29.928 428.496 28.749 426.779 28.158C425.063 27.5685 422.497 26.4135 421.078 25.593C419.661 24.774 417.093 23.6925 415.374 23.1915C413.655 22.689 411.09 21.6165 409.674 20.8065C408.258 19.9965 405.615 18.9975 403.8 18.585C401.985 18.1725 399.184 17.1765 397.575 16.3695C395.967 15.564 392.761 14.511 390.451 14.0295C388.143 13.548 384.714 12.5055 382.831 11.7135C380.95 10.9215 376.866 9.8385 373.755 9.306C370.646 8.7735 366.21 7.6965 363.9 6.912C361.404 6.0645 356.169 5.088 351 4.5045C338.514 3.0945 337.2 2.7765 337.2 1.1595C337.2 0.0255001 336.368 0 300 0C263.319 0 262.8 0.0165 262.8 1.188ZM376.638 84.429C387.233 89.9445 394.409 94.068 396.768 96C397.778 96.825 399.471 98.04 400.531 98.7C404.002 100.857 407.658 103.423 409.905 105.279C411.117 106.281 413.746 108.45 415.749 110.1C423.706 116.66 440.385 133.745 446.121 141.216C449.106 145.101 452.335 149.607 453.445 151.432C454.026 152.385 455.364 154.327 456.422 155.749C457.478 157.171 458.926 159.496 459.639 160.917C460.351 162.337 461.424 164.04 462.02 164.7C462.617 165.36 463.578 167.115 464.156 168.6C464.735 170.085 465.813 172.035 466.552 172.935C467.292 173.833 468.222 175.588 468.62 176.835C469.017 178.08 470.088 180.45 470.998 182.1C471.91 183.75 473.13 186.585 473.712 188.4C474.294 190.215 475.251 192.389 475.839 193.229C476.429 194.07 477.47 197.007 478.154 199.757C478.838 202.505 479.901 205.598 480.516 206.627C481.131 207.657 482.103 210.93 482.676 213.9C483.249 216.87 484.35 221.325 485.124 223.8C485.899 226.281 486.957 232.205 487.48 237C488.002 241.785 488.691 247.995 489.008 250.8C491.003 268.414 488.747 304.413 485.062 313.749C484.596 314.932 483.669 318.57 483.003 321.832C482.337 325.095 481.13 329.28 480.32 331.133C479.508 332.985 478.407 336.255 477.871 338.4C477.337 340.545 476.376 343.152 475.736 344.193C475.097 345.234 474.013 347.799 473.331 349.893C472.647 351.987 471.705 354.13 471.237 354.655C470.767 355.182 469.716 357.317 468.9 359.4C468.084 361.484 467.017 363.629 466.531 364.164C466.045 364.701 464.951 366.616 464.096 368.421C462.561 371.662 459.642 376.609 457.201 380.1C456.51 381.09 455.144 383.115 454.166 384.6C449.478 391.716 446.913 395.021 438.857 404.322C432.837 411.272 419.255 424.68 416.4 426.49C415.575 427.014 413.767 428.4 412.383 429.572C406.855 434.246 399.774 439.382 396.674 440.963C395.358 441.635 394.108 442.462 393.898 442.803C393.687 443.143 392.117 444.131 390.408 444.996C388.698 445.862 386.464 447.207 385.443 447.986C384.421 448.764 383.327 449.4 383.009 449.4C382.691 449.4 380.826 450.375 378.864 451.568C376.904 452.759 373.872 454.233 372.128 454.842C370.382 455.452 368.221 456.468 367.327 457.098C366.432 457.728 364.104 458.705 362.152 459.267C360.202 459.83 357.368 460.931 355.853 461.712C354.339 462.494 351.271 463.551 349.036 464.061C346.803 464.571 343.942 465.515 342.682 466.158C341.421 466.802 337.309 467.905 333.544 468.612C329.781 469.318 324.956 470.424 322.824 471.068C320.693 471.713 316.238 472.516 312.924 472.857C308.094 473.352 306.622 473.734 305.497 474.787L304.095 476.1L304.298 489.687C304.571 508.02 300.035 505.8 337.211 505.8C369.726 505.8 372.606 506.01 376.431 508.659C391.044 518.785 389.879 537.53 374.166 545.088L369.774 547.2H283.721H197.665L193.204 545.061C177.766 537.663 176.388 518.44 190.617 508.996C195.299 505.888 195.485 505.875 234.957 505.836C270.215 505.8 270.42 505.792 271.557 504.537C272.61 503.374 272.7 502.209 272.7 489.785C272.7 472.977 274.021 474.581 259.047 473.234C252.939 472.683 246.695 471.81 245.169 471.293C243.645 470.775 239.091 469.71 235.049 468.926C231.008 468.141 226.46 466.943 224.943 466.263C223.425 465.582 220.35 464.6 218.107 464.081C215.865 463.56 212.787 462.504 211.266 461.734C209.745 460.963 207.063 459.907 205.308 459.387C203.551 458.865 200.684 457.62 198.935 456.62C197.186 455.619 195.364 454.8 194.889 454.8C194.413 454.8 192.258 453.735 190.101 452.433C187.942 451.133 185.427 449.878 184.51 449.649C178.408 448.117 176.528 442.833 180.056 437.137C181.065 435.507 182.304 432.942 182.807 431.438C183.311 429.932 184.321 427.89 185.05 426.9C185.781 425.91 187.002 423.543 187.763 421.639C188.525 419.736 189.403 418.022 189.717 417.828C190.03 417.635 191.234 415.547 192.392 413.187C195.698 406.454 198.806 400.587 199.938 398.949C200.51 398.123 201.29 396.513 201.671 395.373C202.053 394.233 202.993 392.454 203.76 391.42C204.526 390.387 205.618 388.362 206.187 386.92C206.757 385.479 208.117 382.988 209.211 381.383C210.304 379.778 211.2 378.147 211.2 377.76C211.2 377.372 211.731 376.013 212.381 374.739L213.56 372.426L212.08 370.667C211.266 369.699 210.6 368.682 210.6 368.406C210.6 368.129 209.271 367.085 207.645 366.086C202.278 362.783 188.658 348.592 183.192 340.609C182.474 339.559 181.223 337.889 180.413 336.897C179.603 335.906 178.489 334.02 177.94 332.706C177.391 331.392 176.436 329.772 175.816 329.107C175.197 328.443 174.115 326.438 173.413 324.65C172.711 322.862 171.642 320.701 171.038 319.849C170.433 318.997 169.38 316.494 168.699 314.286C168.018 312.08 166.943 309.245 166.307 307.986C165.672 306.729 164.416 302.325 163.515 298.2C162.615 294.075 161.505 289.08 161.049 287.1C158.853 277.554 159.453 256.074 162.227 245.04C163.047 241.773 164.029 237.345 164.409 235.2C164.788 233.055 165.589 230.49 166.191 229.5C166.791 228.51 167.88 225.675 168.611 223.2C169.34 220.725 170.433 218.001 171.04 217.146C171.648 216.291 172.702 214.101 173.385 212.277C174.067 210.455 175.135 208.502 175.758 207.938C176.38 207.375 177.228 206.055 177.642 205.007C178.405 203.069 180.142 200.455 183.894 195.6C185.041 194.115 186.626 191.948 187.415 190.782C189.21 188.129 202.294 175.068 206.191 172.038C213.126 166.645 214.632 165.564 216.9 164.349C218.22 163.641 220.146 162.429 221.18 161.655C222.213 160.881 224.238 159.776 225.68 159.201C227.121 158.625 229.224 157.529 230.354 156.764C231.483 155.999 233.913 154.944 235.754 154.419C237.594 153.894 239.934 152.959 240.954 152.343C241.976 151.725 245.644 150.551 249.109 149.732C252.574 148.913 256.195 147.943 257.155 147.577C265.567 144.375 296.759 144.021 307.869 147.001C310.305 147.655 314.994 148.887 318.288 149.736C321.58 150.586 324.573 151.528 324.938 151.831C325.346 152.169 326.622 152.091 328.251 151.629C331.113 150.817 330.816 151.245 337.492 138.3C338.683 135.99 340.183 133.155 340.827 132C341.47 130.845 342.426 128.955 342.951 127.8C343.476 126.645 345.216 123.27 346.818 120.3C348.42 117.33 350.293 113.685 350.982 112.2C351.67 110.715 352.628 108.825 353.109 108C353.591 107.175 354.927 104.61 356.077 102.3C357.229 99.99 358.711 97.155 359.373 96C360.034 94.845 361.129 92.685 361.807 91.2C363.231 88.077 365.919 83.4225 367.146 81.957C368.298 80.5815 370.193 81.075 376.638 84.429ZM378.94 127.347C377.425 129.078 375.732 131.71 375.174 133.197C374.618 134.683 373.305 137.163 372.257 138.706C371.21 140.251 370.161 142.276 369.928 143.206C369.696 144.138 368.863 145.746 368.077 146.779C367.29 147.813 366.186 149.838 365.623 151.279C365.061 152.721 364.097 154.629 363.48 155.521C362.864 156.412 361.685 158.573 360.858 160.322C360.032 162.069 358.914 164.205 358.372 165.066C357.196 166.938 359.319 171.372 362.279 173.225C363.17 173.783 364.742 175.063 365.772 176.07C366.801 177.076 368.898 179.115 370.431 180.6C373.08 183.165 375.778 186.111 380.748 191.863C382.725 194.151 384.717 197.039 388.036 202.427C388.621 203.376 389.997 205.491 391.094 207.126C392.192 208.761 393.46 211.155 393.915 212.443C394.371 213.733 395.403 215.938 396.21 217.344C397.017 218.749 398.133 221.52 398.691 223.5C399.249 225.48 400.216 227.933 400.84 228.951C401.466 229.97 402.675 234.254 403.529 238.469C404.382 242.685 405.307 246.73 405.583 247.456C405.859 248.184 406.277 250.38 406.508 252.339C407.181 258.01 408.687 260.841 411.76 262.2C414.933 263.604 420.742 269.121 423.771 273.607C428.449 280.539 429.053 297.689 424.805 303C424.145 303.825 423.09 305.451 422.46 306.615C419.394 312.271 410.527 318.162 403.6 319.143C398.101 319.922 393.6 322.779 393.6 325.491C393.6 325.891 392.809 327.312 391.842 328.646C390.876 329.981 389.419 332.383 388.608 333.987C387.795 335.589 386.561 337.414 385.865 338.043C385.169 338.671 384.6 339.511 384.6 339.909C384.6 340.306 383.723 341.595 382.65 342.774C381.578 343.952 379.905 346.015 378.933 347.359C376.888 350.188 367.221 359.81 362.4 363.815C360.585 365.322 358.122 367.376 356.927 368.378C355.733 369.38 354.459 370.2 354.098 370.2C353.738 370.2 352.556 370.975 351.471 371.922C350.387 372.868 347.88 374.501 345.9 375.549C343.92 376.598 341.625 377.82 340.8 378.266C336.184 380.759 328.746 384.051 326.4 384.641C324.915 385.013 322.35 385.948 320.7 386.719C315.393 389.197 294.258 392.483 283.5 392.502C272.046 392.522 251.334 389.157 247.52 386.658C246.258 385.832 243.299 386.232 241.337 387.495C240.567 387.991 237.521 393.419 235.217 398.4C234.53 399.885 233.571 401.775 233.088 402.6C232.605 403.425 231.273 406.015 230.13 408.355C228.987 410.695 227.664 412.932 227.191 413.324C226.719 413.717 225.737 415.631 225.008 417.578C224.28 419.526 223.181 421.574 222.567 422.13C216.638 427.496 220.685 433.479 231.9 435.928C234.54 436.506 238.345 437.593 240.355 438.348C258.342 445.092 309.258 445.092 327.245 438.348C329.255 437.593 333.06 436.501 335.7 435.919C338.34 435.337 341.58 434.239 342.9 433.48C344.22 432.72 346.515 431.799 348 431.433C350.494 430.818 356.287 428.28 362.1 425.254C363.42 424.567 366.255 423.098 368.4 421.988C370.545 420.878 373.147 419.369 374.184 418.635C375.22 417.9 376.84 416.832 377.784 416.259C382.483 413.406 390.474 407.787 393.3 405.345C394.29 404.49 397.125 402.061 399.6 399.949C404.29 395.944 415.299 384.564 419.224 379.658C425.068 372.359 427.719 368.718 430.641 363.984C431.223 363.041 432.306 361.421 433.049 360.384C433.79 359.348 434.97 357.285 435.67 355.8C436.371 354.315 437.535 352.29 438.256 351.3C438.978 350.31 440.066 348.15 440.673 346.5C441.281 344.85 442.293 342.763 442.92 341.863C443.548 340.963 444.69 338.383 445.457 336.129C446.223 333.874 447.322 331.117 447.898 330.003C448.474 328.888 449.584 325.59 450.366 322.673C451.146 319.757 452.187 316.592 452.679 315.641C453.171 314.69 454.263 309.903 455.105 305.005C455.948 300.108 456.888 295.155 457.197 294C459.465 285.491 459.509 254.178 457.268 243.6C456.603 240.465 455.508 234.584 454.834 230.529C454.159 226.475 453.198 222.363 452.697 221.394C452.196 220.423 451.149 217.255 450.373 214.354C449.596 211.452 448.284 207.732 447.457 206.088C446.629 204.445 445.516 201.583 444.982 199.728C444.448 197.874 443.621 196.032 443.142 195.635C442.664 195.237 441.558 193.044 440.685 190.759C439.812 188.476 438.817 186.435 438.474 186.222C438.132 186.011 437.094 184.168 436.168 182.128C435.244 180.088 434.041 178.05 433.497 177.597C432.952 177.146 431.837 175.544 431.018 174.038C429.249 170.784 425.893 165.769 424.381 164.122C423.786 163.473 422.794 162.123 422.176 161.122C421.557 160.12 420.303 158.49 419.388 157.5C418.473 156.51 416.164 153.945 414.258 151.8C408.393 145.204 400.906 138.193 389.895 128.986C388.218 127.584 382.524 124.22 381.797 124.203C381.74 124.202 380.454 125.616 378.94 127.347ZM274.2 155.418C270.735 155.659 265.692 156.429 262.992 157.13C260.292 157.832 256.066 158.79 253.602 159.263C251.136 159.734 247.81 160.778 246.21 161.583C244.609 162.389 241.815 163.477 240 164.004C238.185 164.532 235.755 165.599 234.6 166.376C233.445 167.154 231.285 168.264 229.8 168.845C228.315 169.425 226.602 170.347 225.994 170.893C225.387 171.439 223.732 172.565 222.316 173.393C218.202 175.805 215.088 178.161 208.899 183.55C200.043 191.265 190.184 202.926 187.292 209.109C186.671 210.434 185.733 211.875 185.205 212.313C184.677 212.751 183.678 214.636 182.986 216.504C182.293 218.371 181.088 220.845 180.305 222C179.523 223.155 178.439 225.838 177.896 227.964C177.353 230.089 176.349 232.924 175.665 234.264C172.865 239.754 169.485 265.762 170.387 274.881C171.482 285.958 174.146 299.672 175.997 303.767C176.775 305.49 177.742 308.25 178.147 309.9C178.551 311.55 179.643 314.115 180.573 315.6C181.501 317.085 182.587 319.32 182.983 320.565C183.379 321.812 184.35 323.598 185.139 324.537C185.93 325.476 187.099 327.465 187.738 328.956C188.377 330.447 189.204 331.855 189.575 332.085C189.945 332.313 190.953 333.615 191.812 334.979C193.677 337.932 194.539 338.913 203.1 347.833C209.119 354.105 215.428 359.589 217.57 360.411C218.862 360.906 222.524 356.595 224.546 352.2C225.533 350.055 226.83 347.61 227.428 346.766C228.027 345.921 228.99 344.031 229.566 342.565C230.144 341.1 231.237 339.072 231.996 338.06C232.755 337.046 233.791 335.04 234.3 333.6C234.808 332.16 235.908 330.086 236.743 328.989C237.579 327.894 238.569 326.12 238.941 325.049C239.315 323.978 240.38 321.9 241.31 320.433C243.593 316.831 243.489 316.232 239.85 311.988C234.592 305.858 231.051 301.041 229.71 298.2C229.009 296.715 227.901 294.738 227.247 293.808C220.43 284.104 220.346 253.588 227.111 243.6C227.892 242.445 229.096 240.285 229.786 238.8C232.435 233.101 241.017 223.079 245.982 219.887C250.523 216.966 253.002 213.93 253.421 210.777C253.794 207.953 254.173 207.049 257.518 201C259.2 197.961 264.036 192.836 266.721 191.25C267.699 190.671 269.339 189.657 270.363 188.995C276.551 184.996 293.308 185.874 299.1 190.499C300.42 191.552 302.799 192.829 304.388 193.338L307.275 194.26L308.84 191.779C309.701 190.416 311.015 188.355 311.762 187.2C312.507 186.045 313.583 183.885 314.151 182.4C314.718 180.915 315.661 179.16 316.246 178.5C316.831 177.84 317.886 175.833 318.59 174.039C319.293 172.247 320.648 169.893 321.599 168.81C323.036 167.173 323.242 166.558 322.827 165.169C321.574 160.999 321.29 160.815 313.757 159.316C310.976 158.763 306.864 157.774 304.62 157.12C297.727 155.112 287.15 154.519 274.2 155.418ZM350.963 181.331C349.185 182.687 347.983 184.266 347.136 186.363C346.456 188.043 345.186 190.471 344.315 191.758C343.443 193.047 342.406 195.12 342.013 196.365C341.619 197.612 340.642 199.409 339.841 200.361C339.04 201.312 337.978 203.244 337.48 204.654C336.984 206.064 335.896 208.11 335.065 209.199C334.233 210.29 333.17 212.269 332.7 213.6C332.231 214.93 331.148 216.934 330.294 218.053C327.149 222.178 327.651 224.562 333.147 231.573C336.485 235.83 341.663 245.39 342.263 248.4C342.494 249.555 343.393 252.93 344.263 255.9C346.504 263.552 346.501 273.322 344.256 281.1C343.398 284.07 342.38 287.915 341.99 289.643C341.601 291.372 340.771 293.436 340.147 294.231C339.522 295.026 338.505 296.851 337.887 298.288C337.27 299.724 335.782 302.073 334.582 303.507C333.382 304.941 332.4 306.318 332.4 306.568C332.4 307.383 322.041 317.451 320.25 318.378C319.291 318.873 317.292 320.206 315.807 321.339C314.324 322.473 312.762 323.4 312.339 323.4C311.914 323.4 309.978 324.252 308.034 325.292C304.296 327.293 302.641 327.796 296.452 328.819C287.214 330.345 283.731 330.566 278.982 329.927L274.179 329.28L271.639 331.539C270.075 332.931 268.378 335.344 267.222 337.819C266.188 340.032 265.059 342.017 264.711 342.231C264.363 342.447 263.514 344.128 262.826 345.969C262.137 347.808 260.946 350.166 260.178 351.207C259.41 352.248 258.318 354.297 257.751 355.76C257.186 357.224 256.089 359.172 255.315 360.091C254.541 361.011 253.464 363.101 252.921 364.736C252.378 366.371 251.526 368.046 251.028 368.46C247.331 371.527 248.444 376.077 253.346 377.941C264.855 382.317 305.806 382.145 314.433 377.684C315.343 377.213 318.205 376.249 320.794 375.544C323.382 374.838 326.985 373.485 328.8 372.538C330.615 371.59 333.315 370.265 334.8 369.591C339.051 367.667 350.21 360.663 352.794 358.299C353.396 357.75 355.82 355.68 358.184 353.7C365.007 347.984 374.663 336.722 379.2 329.189C380.025 327.819 381.557 325.539 382.604 324.121C385.041 320.826 384.417 317.313 381.034 315.3C371.995 309.919 366.384 299.958 366.333 289.2L366.3 282.3L368.85 277.06C373.372 267.771 378.978 263.02 390.6 258.622C396.607 256.348 396.375 257.092 394.502 246.186C393.594 240.901 392.271 235.371 391.516 233.7C390.771 232.05 389.587 228.779 388.887 226.43C388.186 224.081 387.216 221.827 386.73 221.424C386.243 221.02 385.29 219.204 384.611 217.389C383.93 215.572 382.731 213.234 381.947 212.193C381.161 211.152 380.088 209.355 379.561 208.2C379.035 207.045 377.652 204.885 376.485 203.4C375.32 201.915 373.36 199.401 372.132 197.814C369.658 194.615 359.549 184.309 356.13 181.5C354.926 180.51 353.853 179.622 353.746 179.527C353.641 179.431 352.388 180.243 350.963 181.331ZM246.271 233.436C244.306 235.795 242.207 238.258 241.604 238.909C238.082 242.71 234.613 251.622 233.331 260.166L232.069 268.572L233.339 276.921C234.125 282.09 235.087 286.189 235.867 287.685C236.559 289.012 237.799 291.438 238.624 293.073C239.448 294.709 241.004 297.139 242.082 298.473C243.159 299.808 244.356 301.507 244.741 302.25C246.052 304.777 250.773 303.66 252.081 300.513C252.531 299.432 253.638 297.184 254.539 295.522C255.442 293.86 256.969 290.844 257.932 288.82C258.897 286.797 259.949 284.979 260.27 284.781C260.591 284.583 261.475 282.864 262.237 280.961C262.998 279.057 264.205 276.69 264.921 275.7C265.635 274.71 266.688 272.685 267.26 271.2C267.833 269.715 268.673 268.086 269.126 267.579C269.58 267.074 270.648 265.083 271.5 263.159C272.352 261.233 273.665 258.812 274.419 257.778C279.344 251.031 278.078 247.283 269.832 244.197C266.091 242.798 259.062 236.083 257.133 232.066C255.946 229.596 255.786 229.494 252.871 229.323L249.843 229.146L246.271 233.436ZM318.832 240.15C317.961 241.883 316.736 244.025 316.11 244.911C315.486 245.796 314.586 247.623 314.111 248.97C313.635 250.317 312.602 252.293 311.814 253.359C311.025 254.427 309.924 256.479 309.367 257.921C308.809 259.362 307.722 261.387 306.951 262.421C306.18 263.454 305.229 265.296 304.841 266.513C304.451 267.729 303.608 269.392 302.966 270.208C302.324 271.023 300.971 273.537 299.958 275.794C298.946 278.05 297.753 280.304 297.309 280.799C296.865 281.295 296.033 282.915 295.46 284.4C294.888 285.885 293.775 287.973 292.986 289.041C292.199 290.108 291.17 292.07 290.7 293.4C290.231 294.731 289.167 296.71 288.335 297.801C287.504 298.89 286.409 300.96 285.9 302.4C285.392 303.84 284.362 305.845 283.612 306.859C282.277 308.661 278.4 316.248 278.4 317.058C278.4 320.337 298.456 319.711 302.578 316.303C302.974 315.975 304.65 315.189 306.3 314.557C313.206 311.911 324.539 301.369 328.076 294.3C328.901 292.65 330.097 290.554 330.733 289.644C336.048 282.037 335.624 254.496 330.072 246.701C329.373 245.718 328.8 244.75 328.8 244.551C328.8 242.542 326.037 238.785 323.944 237.948C320.634 236.623 320.604 236.636 318.832 240.15Z" fill="black"/>
</g>
<defs>
<clipPath id="clip0_1_26">
<rect width="600" height="600" fill="white"/>
</clipPath>
</defs>
</svg>
