<svg width="24" height="24" viewBox="0 0 24 24" fill="none" xmlns="http://www.w3.org/2000/svg">
<rect width="24" height="24" rx="1" fill="white"/>
<path fill-rule="evenodd" clip-rule="evenodd" d="M8.49967 6.00114C9.01306 5.99125 9.52571 6.04584 10.0264 6.1637C10.448 6.25915 10.8483 6.43678 11.206 6.68714C11.5364 6.9361 11.7977 7.27079 11.9639 7.65763C12.1549 8.13331 12.247 8.64541 12.2343 9.16051C12.256 9.72609 12.1167 10.2858 11.8338 10.7699C11.5362 11.227 11.1248 11.5922 10.6433 11.8265C11.2967 12.0092 11.8659 12.4277 12.2484 13.0067C12.6156 13.6202 12.8002 14.3324 12.779 15.0542C12.7911 15.6296 12.6764 16.2003 12.4436 16.7228C12.2284 17.1786 11.9132 17.5759 11.5234 17.8827C11.1221 18.1862 10.6705 18.4107 10.191 18.5451C9.69382 18.6878 9.18016 18.7594 8.66426 18.7581H3V6.00114H8.49967ZM8.17284 11.1608C8.57621 11.1781 8.97329 11.0528 9.29911 10.8056C9.45515 10.6616 9.57654 10.4816 9.65356 10.2802C9.73059 10.0789 9.76112 9.86157 9.74272 9.64575C9.75316 9.39369 9.70477 9.14274 9.60164 8.91423C9.51417 8.73229 9.37815 8.58023 9.20976 8.47613C9.03921 8.36153 8.84759 8.28487 8.64702 8.25098C8.42939 8.20726 8.20794 8.18737 7.98631 8.19164H5.56604V11.1722H8.17284V11.1608ZM8.31392 16.592C8.55786 16.5954 8.8013 16.5681 9.0389 16.5107C9.25603 16.461 9.46196 16.3685 9.64553 16.2384C9.82538 16.1083 9.97067 15.9333 10.068 15.7296C10.1808 15.4698 10.2327 15.1859 10.2193 14.9013C10.2437 14.642 10.2106 14.3803 10.1224 14.1363C10.0342 13.8922 9.89337 13.6724 9.71059 13.4936C9.32317 13.1976 8.8484 13.0511 8.368 13.079H5.56604V16.592H8.31392Z" fill="black"/>
<path fill-rule="evenodd" clip-rule="evenodd" d="M16.4337 16.5448C16.6351 16.7384 16.8724 16.8875 17.131 16.983C17.3897 17.0786 17.6645 17.1187 17.9385 17.1007C18.373 17.1121 18.799 16.975 19.151 16.7106C19.4373 16.5175 19.6542 16.2318 19.7678 15.8978H21.8142C21.5962 16.8486 21.0637 17.6901 20.3094 18.276C19.5858 18.7742 18.7306 19.0264 17.8625 18.9978C17.2429 19.0062 16.628 18.8855 16.0544 18.6426C15.5354 18.4182 15.07 18.0789 14.6906 17.6486C14.3126 17.1976 14.0223 16.6751 13.8355 16.1099C13.6259 15.4781 13.5232 14.8135 13.5322 14.1454C13.5284 13.4885 13.6345 12.8359 13.8457 12.2166C14.1295 11.3454 14.6722 10.5898 15.3958 10.0582C16.1194 9.52668 16.9868 9.24653 17.8735 9.25798C18.5281 9.24379 19.1754 9.40267 19.7545 9.71965C20.2779 10.0173 20.7295 10.4342 21.0751 10.9389C21.4288 11.4684 21.6822 12.0628 21.8221 12.6905C21.9754 13.3644 22.0301 14.0585 21.9843 14.7493H15.889C15.8396 15.3983 16.0349 16.042 16.4337 16.5448ZM19.1079 11.6931C18.9373 11.5162 18.7322 11.3792 18.5063 11.2915C18.2803 11.2037 18.0389 11.1672 17.7982 11.1843C17.4789 11.1717 17.1619 11.2451 16.8781 11.3973C16.6531 11.5257 16.4545 11.6986 16.2934 11.9061C16.1507 12.1006 16.0443 12.3212 15.9799 12.5563C15.9218 12.7524 15.8855 12.9548 15.8717 13.1594H19.6471C19.6142 12.626 19.4268 12.1152 19.1095 11.694L19.1079 11.6931Z" fill="black"/>
<path d="M15.385 6.85291H20.1158V8.10707H15.385V6.85291Z" fill="black"/>
</svg>
