<svg width="1276" height="782" viewBox="0 0 1276 782" fill="none" xmlns="http://www.w3.org/2000/svg" version="1.1" xmlns:xlink="http://www.w3.org/1999/xlink">
                            <path id="circlePath" opacity="0.5" d="M743.708 533.126C741.43 534.537 739.143 535.944 736.846 537.346L736.586 536.92C735.438 537.621 734.288 538.321 733.136 539.019C731.984 539.718 730.832 540.414 729.68 541.108L729.938 541.537C727.633 542.925 725.328 544.303 723.024 545.671L722.768 545.241C720.465 546.608 718.162 547.966 715.86 549.313L716.112 549.745C713.794 551.101 711.476 552.448 709.16 553.784L708.91 553.351C706.579 554.695 704.249 556.029 701.921 557.352L702.168 557.787C699.838 559.111 697.51 560.424 695.182 561.727L694.938 561.291C692.594 562.603 690.251 563.905 687.909 565.196L688.151 565.634C685.793 566.934 683.438 568.223 681.084 569.501L680.845 569.062C678.492 570.34 676.141 571.606 673.791 572.862L674.027 573.303C671.654 574.572 669.283 575.829 666.914 577.075L666.681 576.633C664.3 577.886 661.922 579.127 659.545 580.357L659.775 580.801C657.398 582.032 655.023 583.251 652.651 584.459L652.424 584.013C650.023 585.236 647.625 586.447 645.229 587.646L645.453 588.093C643.048 589.297 640.645 590.49 638.245 591.67L638.025 591.222C635.626 592.402 633.231 593.571 630.839 594.727L631.057 595.177C628.624 596.353 626.195 597.517 623.77 598.669L623.556 598.217C621.129 599.37 618.706 600.51 616.287 601.638L616.498 602.091C614.071 603.223 611.647 604.342 609.228 605.449L609.02 604.994C606.563 606.118 604.111 607.229 601.664 608.327L601.868 608.783C599.42 609.881 596.976 610.967 594.537 612.039L594.336 611.582C591.876 612.663 589.421 613.732 586.972 614.787L587.17 615.246C584.692 616.314 582.219 617.368 579.751 618.408L579.557 617.947C577.091 618.987 574.63 620.014 572.176 621.026L572.366 621.489C569.87 622.519 567.379 623.535 564.894 624.536L564.707 624.073C562.212 625.079 559.723 626.071 557.24 627.048L557.424 627.514C554.931 628.495 552.445 629.462 549.967 630.415L549.787 629.948C547.261 630.919 544.742 631.875 542.231 632.815L542.406 633.283C539.894 634.224 537.389 635.15 534.892 636.061L534.721 635.591C532.188 636.515 529.663 637.423 527.147 638.315L527.314 638.787C524.772 639.688 522.238 640.574 519.714 641.443L519.551 640.97C517.02 641.842 514.499 642.697 511.987 643.536L512.145 644.01C509.572 644.869 507.009 645.711 504.456 646.537L504.302 646.061C501.751 646.885 499.209 647.693 496.679 648.483L496.828 648.96C494.246 649.766 491.676 650.555 489.117 651.325L488.973 650.846C486.393 651.623 483.824 652.381 481.268 653.121L481.407 653.601C478.823 654.349 476.252 655.078 473.693 655.788L473.56 655.306C470.951 656.03 468.355 656.735 465.773 657.42L465.901 657.903C463.314 658.589 460.741 659.256 458.182 659.903L458.059 659.418C455.422 660.084 452.799 660.73 450.192 661.354L450.309 661.84C447.7 662.465 445.106 663.069 442.528 663.651L442.418 663.164C439.769 663.762 437.138 664.338 434.523 664.891L434.627 665.38C431.994 665.938 429.379 666.472 426.782 666.984L426.685 666.493C424.026 667.017 421.386 667.517 418.765 667.992L418.854 668.484C416.2 668.966 413.566 669.423 410.953 669.855L410.871 669.362C408.199 669.803 405.548 670.219 402.919 670.609L402.992 671.103C400.321 671.499 397.672 671.868 395.047 672.21L394.982 671.714C392.293 672.064 389.629 672.386 386.99 672.679L387.045 673.176C384.361 673.474 381.704 673.743 379.074 673.981L379.029 673.483C376.321 673.729 373.641 673.944 370.991 674.127L371.025 674.625C368.338 674.811 365.681 674.963 363.055 675.084L363.032 674.584C360.304 674.709 357.609 674.799 354.949 674.853L354.959 675.353C352.263 675.407 349.603 675.426 346.978 675.408L346.982 674.908C344.252 674.889 341.561 674.83 338.911 674.732L338.892 675.232C336.175 675.131 333.5 674.988 330.869 674.803L330.904 674.305C328.208 674.115 325.558 673.882 322.956 673.604L322.903 674.101C320.175 673.81 317.498 673.469 314.875 673.08L314.948 672.586C312.263 672.187 309.635 671.738 307.064 671.236L306.969 671.727C304.304 671.207 301.702 670.632 299.162 670.001L299.283 669.515C296.624 668.855 294.036 668.133 291.521 667.35L291.372 667.827C288.761 667.014 286.228 666.136 283.773 665.19L283.953 664.723C281.421 663.748 278.975 662.702 276.616 661.585L276.402 662.037C273.944 660.873 271.58 659.632 269.313 658.313L269.564 657.88C267.219 656.516 264.979 655.068 262.846 653.537L262.554 653.943C260.345 652.357 258.251 650.682 256.273 648.916L256.606 648.543C254.605 646.756 252.725 644.876 250.97 642.902L250.596 643.234C248.813 641.229 247.157 639.128 245.633 636.93L246.043 636.645C245.286 635.552 244.56 634.435 243.868 633.294C243.176 632.153 242.521 630.993 241.902 629.816L241.459 630.049C240.214 627.681 239.116 625.241 238.162 622.733L238.629 622.556C237.69 620.087 236.892 617.551 236.232 614.95L235.747 615.073C235.095 612.503 234.578 609.871 234.192 607.18L234.687 607.109C234.315 604.51 234.066 601.854 233.94 599.144L233.441 599.167C233.319 596.546 233.311 593.876 233.414 591.159L233.914 591.178C234.013 588.57 234.216 585.917 234.522 583.221L234.025 583.165C234.321 580.551 234.712 577.898 235.198 575.208L235.69 575.297C236.158 572.703 236.714 570.075 237.357 567.412L236.871 567.295C237.485 564.751 238.177 562.177 238.948 559.574L239.427 559.716C240.171 557.205 240.986 554.666 241.874 552.101L241.401 551.938C242.269 549.432 243.204 546.901 244.206 544.347L244.672 544.529C245.628 542.093 246.646 539.635 247.724 537.157L247.265 536.958C248.317 534.539 249.427 532.101 250.593 529.645L251.045 529.859C252.183 527.464 253.374 525.05 254.619 522.621L254.174 522.393C255.371 520.057 256.617 517.706 257.911 515.341L258.35 515.581C259.627 513.247 260.952 510.898 262.324 508.536L261.892 508.285C263.212 506.012 264.575 503.727 265.981 501.429L266.408 501.69C267.795 499.425 269.223 497.148 270.693 494.86L270.272 494.589C271.7 492.367 273.166 490.135 274.67 487.893L275.085 488.172C276.565 485.967 278.082 483.753 279.635 481.53L279.225 481.243C280.742 479.073 282.293 476.895 283.878 474.709L284.283 475.003C285.844 472.851 287.438 470.692 289.064 468.526L288.665 468.226C290.256 466.108 291.878 463.983 293.532 461.853L293.927 462.159C295.56 460.055 297.223 457.945 298.916 455.828L298.526 455.516C300.18 453.449 301.863 451.377 303.574 449.3L303.959 449.618C305.658 447.555 307.385 445.488 309.14 443.416L308.758 443.093C310.466 441.076 312.2 439.055 313.96 437.03L314.338 437.358C316.096 435.334 317.88 433.307 319.69 431.276L319.317 430.943C321.073 428.973 322.854 426.999 324.658 425.022L325.027 425.359C326.828 423.385 328.652 421.409 330.5 419.43L330.135 419.089C331.947 417.148 333.782 415.205 335.639 413.26L336.001 413.605C337.838 411.68 339.698 409.752 341.579 407.823L341.221 407.474C343.087 405.561 344.974 403.646 346.881 401.729L347.236 402.082C349.106 400.203 350.997 398.322 352.907 396.441L352.556 396.085C354.468 394.202 356.399 392.318 358.35 390.433L358.698 390.793C360.603 388.953 362.526 387.112 364.468 385.271L364.124 384.908C366.062 383.071 368.018 381.233 369.993 379.396L370.333 379.762C372.288 377.943 374.26 376.123 376.249 374.304L375.912 373.935C377.874 372.142 379.852 370.348 381.848 368.555L382.182 368.927C384.177 367.135 386.188 365.343 388.217 363.551L387.886 363.176C389.876 361.418 391.882 359.661 393.905 357.904L394.233 358.282C396.247 356.532 398.277 354.783 400.323 353.035L399.998 352.655C402.034 350.915 404.086 349.176 406.154 347.438L406.476 347.82C408.508 346.111 410.555 344.404 412.617 342.697L412.298 342.312C414.361 340.605 416.439 338.899 418.531 337.195L418.847 337.582C420.915 335.898 422.996 334.215 425.092 332.534L424.779 332.144C426.858 330.477 428.95 328.811 431.056 327.147L431.366 327.54C433.47 325.877 435.589 324.216 437.721 322.556L437.414 322.162C439.513 320.528 441.626 318.896 443.751 317.266L444.055 317.663C446.174 316.039 448.304 314.417 450.448 312.798L450.146 312.399C452.289 310.78 454.443 309.164 456.611 307.551L456.909 307.952C459.04 306.365 461.183 304.781 463.338 303.2L463.043 302.797C465.199 301.214 467.367 299.635 469.546 298.058L469.839 298.463C472.01 296.893 474.192 295.326 476.386 293.762L476.095 293.355C478.263 291.81 480.442 290.267 482.632 288.727L482.919 289.136C485.108 287.598 487.309 286.062 489.52 284.529L489.235 284.118C491.435 282.594 493.646 281.072 495.867 279.554L496.15 279.967C498.349 278.464 500.559 276.964 502.78 275.468L502.5 275.053C504.722 273.556 506.953 272.063 509.195 270.573L509.472 270.99C511.699 269.51 513.937 268.034 516.184 266.562L515.91 266.143C518.141 264.682 520.382 263.224 522.633 261.77L522.904 262.19C525.154 260.736 527.413 259.287 529.682 257.841L529.414 257.419C531.669 255.982 533.934 254.549 536.209 253.121L536.475 253.544C538.734 252.125 541.002 250.71 543.279 249.299L543.016 248.874C545.294 247.463 547.581 246.056 549.877 244.654L550.138 245.08C551.286 244.379 552.436 243.679 553.588 242.981C554.74 242.282 555.892 241.586 557.044 240.892L556.786 240.463C559.091 239.075 561.396 237.697 563.7 236.329L563.955 236.759C566.259 235.392 568.562 234.034 570.864 232.687L570.612 232.255C572.93 230.899 575.247 229.552 577.564 228.216L577.814 228.649C580.145 227.305 582.474 225.971 584.803 224.648L584.556 224.213C586.886 222.889 589.214 221.576 591.542 220.273L591.786 220.709C594.13 219.397 596.473 218.095 598.815 216.803L598.573 216.366C600.93 215.066 603.286 213.777 605.64 212.499L605.879 212.938C608.232 211.66 610.583 210.394 612.932 209.138L612.697 208.697C615.07 207.428 617.441 206.171 619.81 204.924L620.043 205.367C622.423 204.114 624.802 202.873 627.179 201.643L626.949 201.199C629.326 199.968 631.701 198.749 634.073 197.541L634.3 197.987C636.701 196.764 639.099 195.553 641.495 194.354L641.271 193.907C643.676 192.703 646.079 191.51 648.478 190.329L648.699 190.778C651.098 189.598 653.493 188.429 655.885 187.273L655.667 186.823C658.099 185.647 660.528 184.483 662.954 183.331L663.168 183.783C665.595 182.63 668.018 181.49 670.437 180.362L670.226 179.909C672.653 178.777 675.077 177.658 677.496 176.551L677.704 177.006C680.161 175.882 682.613 174.771 685.06 173.673L684.855 173.217C687.304 172.119 689.748 171.033 692.187 169.961L692.388 170.418C694.848 169.337 697.302 168.268 699.752 167.213L699.554 166.754C702.032 165.686 704.505 164.632 706.973 163.592L707.167 164.053C709.633 163.013 712.094 161.986 714.548 160.974L714.357 160.511C716.854 159.481 719.345 158.465 721.829 157.464L722.016 157.927C724.512 156.921 727.001 155.929 729.483 154.952L729.3 154.486C731.793 153.505 734.279 152.538 736.757 151.585L736.937 152.052C739.463 151.081 741.982 150.125 744.493 149.185L744.317 148.716C746.83 147.775 749.335 146.85 751.832 145.939L752.003 146.409C754.536 145.485 757.061 144.577 759.577 143.685L759.41 143.213C761.952 142.312 764.486 141.426 767.01 140.557L767.173 141.03C769.704 140.158 772.225 139.303 774.737 138.464L774.579 137.99C777.152 137.131 779.715 136.288 782.268 135.463L782.422 135.939C784.973 135.115 787.514 134.307 790.045 133.517L789.896 133.04C792.477 132.234 795.048 131.445 797.607 130.675L797.751 131.154C800.331 130.377 802.9 129.619 805.456 128.879L805.317 128.399C807.901 127.651 810.472 126.922 813.03 126.212L813.164 126.694C815.773 125.97 818.369 125.265 820.951 124.58L820.823 124.097C823.41 123.41 825.983 122.744 828.542 122.097L828.665 122.582C831.302 121.916 833.925 121.27 836.532 120.646L836.415 120.16C839.024 119.535 841.618 118.931 844.196 118.349L844.306 118.836C846.955 118.238 849.586 117.662 852.2 117.109L852.097 116.619C854.73 116.062 857.345 115.528 859.942 115.016L860.039 115.507C862.698 114.983 865.338 114.483 867.959 114.008L867.869 113.516C870.523 113.034 873.157 112.577 875.771 112.145L875.852 112.638C878.525 112.197 881.176 111.781 883.805 111.391L883.732 110.897C886.403 110.501 889.052 110.132 891.677 109.79L891.742 110.286C894.431 109.936 897.095 109.614 899.734 109.321L899.679 108.824C902.362 108.526 905.02 108.257 907.65 108.019L907.695 108.517C910.403 108.271 913.083 108.056 915.733 107.873L915.699 107.375C918.386 107.189 921.043 107.036 923.669 106.916L923.691 107.416C926.42 107.291 929.115 107.201 931.775 107.147L931.765 106.647C934.461 106.593 937.121 106.574 939.745 106.592L939.742 107.092C942.472 107.111 945.163 107.17 947.813 107.268L947.832 106.768C950.549 106.869 953.224 107.012 955.855 107.197L955.82 107.695C958.516 107.885 961.166 108.118 963.768 108.396L963.821 107.899C966.549 108.19 969.226 108.531 971.849 108.92L971.776 109.414C974.46 109.813 977.089 110.262 979.659 110.764L979.755 110.273C982.419 110.793 985.022 111.368 987.562 111.999L987.441 112.485C990.099 113.145 992.687 113.867 995.203 114.65L995.352 114.173C997.962 114.985 1000.5 115.864 1002.95 116.81L1002.77 117.277C1005.3 118.252 1007.75 119.297 1010.11 120.415L1010.32 119.963C1012.78 121.127 1015.14 122.368 1017.41 123.687L1017.16 124.12C1019.5 125.484 1021.75 126.932 1023.88 128.463L1024.17 128.057C1026.38 129.643 1028.47 131.318 1030.45 133.084L1030.12 133.457C1032.12 135.244 1034 137.124 1035.75 139.098L1036.13 138.766C1037.91 140.771 1039.57 142.872 1041.09 145.07L1040.68 145.355C1041.44 146.448 1042.16 147.565 1042.86 148.706C1043.55 149.847 1044.2 151.007 1044.82 152.184L1045.26 151.951C1046.51 154.319 1047.61 156.759 1048.56 159.267L1048.09 159.444C1049.03 161.913 1049.83 164.449 1050.49 167.05L1050.98 166.927C1051.63 169.496 1052.15 172.129 1052.53 174.82L1052.04 174.891C1052.41 177.49 1052.66 180.146 1052.78 182.856L1053.28 182.833C1053.4 185.454 1053.41 188.124 1053.31 190.841L1052.81 190.822C1052.71 193.43 1052.51 196.083 1052.2 198.779L1052.7 198.835C1052.4 201.449 1052.01 204.102 1051.53 206.792L1051.03 206.703C1050.57 209.296 1050.01 211.925 1049.37 214.588L1049.85 214.705C1049.24 217.249 1048.55 219.823 1047.78 222.426L1047.3 222.284C1046.55 224.795 1045.74 227.334 1044.85 229.899L1045.32 230.062C1044.46 232.568 1043.52 235.099 1042.52 237.653L1042.05 237.471C1041.1 239.907 1040.08 242.365 1039 244.843L1039.46 245.042C1038.41 247.461 1037.3 249.899 1036.13 252.355L1035.68 252.141C1034.54 254.536 1033.35 256.949 1032.1 259.379L1032.55 259.607C1031.35 261.943 1030.11 264.294 1028.81 266.659L1028.37 266.419C1027.1 268.753 1025.77 271.102 1024.4 273.464L1024.83 273.715C1023.51 275.988 1022.15 278.273 1020.74 280.571L1020.32 280.31C1018.93 282.575 1017.5 284.852 1016.03 287.14L1016.45 287.411C1015.02 289.633 1013.56 291.865 1012.05 294.107L1011.64 293.828C1010.16 296.033 1008.64 298.247 1007.09 300.47L1007.5 300.757C1005.98 302.927 1004.43 305.105 1002.85 307.291L1002.44 306.997C1000.88 309.149 999.286 311.308 997.659 313.474L998.059 313.774C996.468 315.892 994.846 318.016 993.192 320.147L992.797 319.841C991.164 321.945 989.501 324.055 987.807 326.171L988.198 326.484C986.544 328.551 984.861 330.623 983.15 332.7L982.764 332.382C981.065 334.445 979.338 336.512 977.584 338.584L977.965 338.907C976.257 340.924 974.523 342.945 972.764 344.97L972.386 344.642C970.628 346.666 968.843 348.693 967.033 350.724L967.407 351.057C965.65 353.027 963.87 355.001 962.066 356.978L961.697 356.641C959.896 358.615 958.071 360.591 956.223 362.57L956.589 362.911C954.777 364.852 952.942 366.795 951.085 368.74L950.723 368.395C948.886 370.32 947.026 372.248 945.145 374.177L945.503 374.526C943.637 376.439 941.75 378.354 939.842 380.271L939.488 379.918C937.618 381.797 935.727 383.678 933.817 385.559L934.168 385.915C932.256 387.798 930.325 389.682 928.374 391.567L928.026 391.207C926.121 393.047 924.198 394.888 922.255 396.729L922.599 397.092C920.662 398.929 918.705 400.767 916.731 402.604L916.39 402.238C914.436 404.057 912.464 405.877 910.474 407.696L910.812 408.065C908.85 409.858 906.872 411.652 904.876 413.445L904.542 413.073C902.547 414.865 900.536 416.657 898.507 418.449L898.838 418.824C896.848 420.581 894.841 422.339 892.819 424.096L892.491 423.718C890.477 425.468 888.447 427.217 886.401 428.965L886.726 429.345C884.69 431.085 882.637 432.824 880.57 434.562L880.248 434.18C878.216 435.888 876.169 437.596 874.107 439.302L874.425 439.688C872.363 441.395 870.285 443.101 868.193 444.805L867.877 444.417C865.809 446.102 863.727 447.785 861.632 449.466L861.944 449.856C859.866 451.523 857.774 453.189 855.668 454.853L855.358 454.46C853.253 456.123 851.135 457.784 849.003 459.443L849.31 459.838C847.211 461.472 845.098 463.104 842.973 464.734L842.668 464.337C840.55 465.961 838.419 467.583 836.276 469.202L836.577 469.601C834.435 471.22 832.28 472.836 830.113 474.449L829.815 474.048C827.684 475.635 825.54 477.219 823.385 478.8L823.681 479.203C821.525 480.786 819.357 482.365 817.178 483.942L816.885 483.537C814.714 485.107 812.532 486.674 810.338 488.238L810.628 488.645C808.461 490.19 806.282 491.733 804.092 493.273L803.805 492.864C801.615 494.402 799.415 495.938 797.204 497.471L797.489 497.882C795.289 499.406 793.078 500.928 790.856 502.446L790.574 502.033C788.375 503.536 786.165 505.036 783.944 506.532L784.224 506.947C782.002 508.444 779.771 509.937 777.528 511.426L777.252 511.01C775.025 512.49 772.787 513.966 770.54 515.438L770.814 515.857C768.583 517.318 766.342 518.776 764.091 520.23L763.82 519.81C761.57 521.264 759.311 522.713 757.042 524.159L757.31 524.581C755.055 526.018 752.789 527.451 750.515 528.879L750.249 528.456C747.99 529.875 745.722 531.29 743.445 532.701L743.708 533.126Z" stroke="#8C8CB1" stroke-dasharray="8 8"/>
                            <path id="circlePath_1" opacity="0.5" d="M696.878 558.902C694.316 559.618 691.749 560.331 689.177 561.039L689.044 560.557C687.758 560.912 686.471 561.265 685.183 561.618C683.895 561.97 682.607 562.321 681.32 562.67L681.451 563.153C678.877 563.852 676.304 564.545 673.735 565.233L673.606 564.75C671.037 565.437 668.47 566.118 665.907 566.793L666.034 567.277C663.47 567.952 660.909 568.622 658.351 569.285L658.225 568.801C655.649 569.47 653.076 570.132 650.506 570.788L650.629 571.273C648.044 571.933 645.461 572.587 642.882 573.235L642.76 572.75C640.181 573.398 637.605 574.04 635.033 574.676L635.153 575.162C632.58 575.798 630.01 576.428 627.444 577.052L627.326 576.566C624.737 577.195 622.151 577.819 619.569 578.436L619.685 578.922C617.089 579.543 614.497 580.157 611.909 580.765L611.795 580.278C609.207 580.886 606.623 581.487 604.043 582.083L604.155 582.57C601.575 583.166 598.998 583.755 596.425 584.338L596.315 583.85C593.71 584.44 591.11 585.024 588.514 585.602L588.623 586.09C586.018 586.669 583.418 587.242 580.822 587.809L580.716 587.32C578.12 587.887 575.53 588.447 572.943 589L573.048 589.489C570.46 590.043 567.877 590.59 565.299 591.131L565.196 590.642C562.575 591.192 559.959 591.735 557.348 592.272L557.449 592.761C554.837 593.298 552.23 593.828 549.628 594.352L549.529 593.862C546.928 594.385 544.332 594.902 541.741 595.412L541.837 595.903C539.232 596.416 536.632 596.922 534.037 597.422L533.942 596.931C531.314 597.437 528.692 597.936 526.075 598.428L526.168 598.919C523.55 599.412 520.938 599.897 518.332 600.376L518.242 599.884C515.637 600.363 513.037 600.834 510.444 601.299L510.532 601.791C507.905 602.262 505.284 602.726 502.67 603.183L502.584 602.69C499.951 603.15 497.324 603.603 494.704 604.048L494.788 604.541C492.167 604.987 489.553 605.426 486.945 605.857L486.864 605.364C484.254 605.796 481.651 606.22 479.055 606.638L479.135 607.131C476.485 607.558 473.842 607.976 471.206 608.388L471.129 607.894C468.494 608.305 465.866 608.709 463.245 609.105L463.32 609.6C460.699 609.996 458.085 610.385 455.478 610.767L455.406 610.272C452.768 610.658 450.138 611.037 447.515 611.408L447.585 611.903C444.934 612.278 442.291 612.645 439.657 613.005L439.589 612.51C436.955 612.869 434.329 613.221 431.711 613.565L431.776 614.06C429.151 614.405 426.535 614.743 423.927 615.072L423.864 614.576C421.199 614.912 418.542 615.241 415.895 615.561L415.955 616.058C413.307 616.378 410.668 616.69 408.038 616.994L407.981 616.498C405.352 616.802 402.732 617.098 400.122 617.385L400.176 617.882C397.513 618.176 394.859 618.461 392.216 618.738L392.164 618.241C389.504 618.519 386.854 618.789 384.214 619.05L384.264 619.548C381.623 619.809 378.993 620.062 376.374 620.306L376.327 619.809C373.672 620.056 371.028 620.295 368.394 620.525L368.438 621.023C365.765 621.257 363.104 621.481 360.454 621.696L360.414 621.198C357.765 621.413 355.128 621.619 352.503 621.817L352.54 622.315C349.888 622.514 347.248 622.704 344.621 622.885L344.586 622.386C341.905 622.571 339.236 622.746 336.58 622.911L336.612 623.41C333.955 623.575 331.311 623.731 328.68 623.877L328.652 623.378C326.002 623.525 323.365 623.662 320.741 623.79L320.766 624.29C318.076 624.421 315.4 624.541 312.739 624.652L312.718 624.152C310.058 624.263 307.413 624.363 304.782 624.453L304.799 624.953C302.143 625.044 299.502 625.124 296.876 625.194L296.862 624.694C294.17 624.766 291.493 624.827 288.833 624.877L288.843 625.377C286.181 625.427 283.536 625.466 280.908 625.494L280.903 624.994C278.237 625.022 275.589 625.04 272.958 625.046L272.959 625.546C270.266 625.552 267.592 625.546 264.936 625.528L264.939 625.028C262.285 625.011 259.649 624.982 257.033 624.941L257.025 625.441C254.34 625.399 251.676 625.344 249.032 625.277L249.044 624.777C246.361 624.71 243.699 624.629 241.058 624.536L241.041 625.035C238.398 624.942 235.777 624.836 233.177 624.717L233.2 624.217C230.493 624.094 227.81 623.956 225.15 623.805L225.122 624.304C222.455 624.152 219.813 623.986 217.195 623.807L217.229 623.308C214.563 623.125 211.922 622.928 209.306 622.716L209.266 623.215C206.577 622.997 203.915 622.764 201.28 622.516L201.327 622.018C198.694 621.771 196.09 621.508 193.513 621.229L193.459 621.727C190.754 621.434 188.079 621.126 185.436 620.8L185.497 620.304C182.852 619.978 180.239 619.636 177.659 619.277L177.59 619.772C174.915 619.4 172.274 619.01 169.668 618.602L169.746 618.108C167.095 617.693 164.482 617.259 161.905 616.807L161.818 617.3C159.17 616.835 156.561 616.351 153.991 615.847L154.087 615.357C151.441 614.838 148.838 614.299 146.277 613.739L146.17 614.227C143.546 613.654 140.966 613.058 138.432 612.44L138.55 611.955C135.924 611.315 133.348 610.652 130.822 609.966L130.691 610.448C128.09 609.741 125.541 609.01 123.047 608.254L123.192 607.776C120.61 606.993 118.086 606.184 115.62 605.349L115.46 605.822C112.889 604.951 110.382 604.051 107.94 603.123L108.117 602.655C105.614 601.703 103.179 600.721 100.814 599.709L100.617 600.169C98.0971 599.09 95.6558 597.977 93.2951 596.83L93.5137 596.38C91.0925 595.203 88.757 593.991 86.5089 592.743L86.2662 593.18C83.8904 591.861 81.6112 590.503 79.4304 589.104L79.7004 588.683C77.4066 587.211 75.223 585.696 73.1519 584.136L72.8511 584.536C70.6826 582.903 68.6359 581.222 66.7137 579.492L67.0482 579.121C65.0509 577.324 63.19 575.475 61.4681 573.575L61.0976 573.91C59.2742 571.898 57.6048 569.828 56.0927 567.699L56.5003 567.409C54.95 565.226 53.5672 562.983 52.3554 560.678L51.9128 560.911C50.6707 558.549 49.6064 556.123 48.7238 553.632L49.195 553.465C48.7555 552.225 48.3615 550.969 48.0135 549.697C47.6656 548.425 47.3654 547.143 47.1125 545.853L46.6218 545.949C46.1139 543.356 45.795 540.725 45.6617 538.06L46.1611 538.035C46.0311 535.435 46.0792 532.8 46.3026 530.132L45.8043 530.09C46.0222 527.488 46.4051 524.856 46.9503 522.195L47.4402 522.296C47.955 519.784 48.6157 517.245 49.42 514.682L48.943 514.532C49.7171 512.065 50.623 509.576 51.6585 507.067L52.1207 507.257C53.1098 504.861 54.2178 502.445 55.4432 500.011L54.9966 499.786C56.1616 497.472 57.4318 495.142 58.8054 492.797L59.2367 493.05C60.5366 490.831 61.9298 488.599 63.4148 486.354L62.9979 486.078C64.446 483.889 65.9806 481.688 67.6009 479.477L68.0042 479.772C69.5245 477.698 71.1203 475.613 72.7908 473.519L72.4 473.207C74.0294 471.165 75.7293 469.114 77.4988 467.055L77.8781 467.381C79.5747 465.407 81.3357 463.426 83.16 461.438L82.7915 461.1C84.5537 459.18 86.3751 457.253 88.2541 455.321L88.6125 455.669C90.4378 453.793 92.318 451.911 94.2524 450.023L93.9032 449.665C95.7702 447.844 97.6874 446.018 99.6543 444.188L99.9949 444.554C101.914 442.769 103.881 440.979 105.894 439.186L105.561 438.813C107.517 437.071 109.517 435.326 111.56 433.578L111.885 433.958C113.873 432.258 115.902 430.554 117.972 428.848L117.654 428.462C119.689 426.784 121.763 425.104 123.876 423.422L124.188 423.813C126.227 422.191 128.301 420.566 130.412 418.94L130.107 418.544C132.216 416.918 134.361 415.291 136.542 413.662L136.841 414.063C138.917 412.512 141.025 410.959 143.165 409.406L142.871 409.002C145.013 407.447 147.186 405.892 149.39 404.335L149.678 404.744C151.822 403.23 153.994 401.716 156.196 400.202L155.913 399.79C158.075 398.302 160.265 396.815 162.483 395.327L162.762 395.742C164.974 394.258 167.214 392.773 169.481 391.289L169.207 390.871C171.384 389.445 173.586 388.019 175.813 386.594L176.083 387.015C178.309 385.591 180.559 384.166 182.834 382.742L182.568 382.318C184.81 380.915 187.076 379.512 189.365 378.109L189.626 378.535C191.858 377.168 194.112 375.801 196.388 374.435L196.13 374.006C198.407 372.639 200.707 371.273 203.028 369.908L203.281 370.339C205.549 369.004 207.837 367.671 210.146 366.339L209.896 365.906C212.173 364.592 214.469 363.279 216.785 361.968L217.032 362.403C219.347 361.092 221.681 359.782 224.036 358.473L223.793 358.036C226.089 356.76 228.403 355.485 230.736 354.211L230.975 354.65C233.285 353.388 235.614 352.128 237.959 350.869L237.723 350.428C240.07 349.169 242.434 347.911 244.816 346.654L245.05 347.096C247.373 345.871 249.713 344.647 252.069 343.425L251.839 342.981C254.178 341.767 256.533 340.556 258.904 339.346L259.131 339.791C261.501 338.581 263.887 337.373 266.289 336.167L266.065 335.72C268.418 334.538 270.788 333.358 273.172 332.18L273.393 332.628C275.753 331.461 278.128 330.296 280.518 329.134L280.299 328.684C282.689 327.521 285.094 326.359 287.513 325.2L287.729 325.651C290.113 324.508 292.511 323.368 294.922 322.229L294.709 321.777C297.088 320.654 299.481 319.533 301.886 318.414L302.097 318.867C304.502 317.749 306.92 316.632 309.352 315.518L309.143 315.063C311.56 313.956 313.989 312.85 316.431 311.747L316.637 312.203C319.03 311.122 321.436 310.043 323.853 308.967L323.65 308.51C326.068 307.433 328.499 306.359 330.942 305.286L331.143 305.744C333.584 304.672 336.038 303.603 338.503 302.536L338.305 302.077C340.717 301.033 343.141 299.991 345.576 298.952L345.773 299.412C348.201 298.376 350.64 297.342 353.09 296.31L352.896 295.849C355.347 294.818 357.809 293.789 360.282 292.762L360.474 293.224C362.92 292.208 365.376 291.195 367.843 290.185L367.654 289.723C370.092 288.724 372.54 287.729 374.998 286.736L375.185 287.199C377.643 286.206 380.11 285.216 382.588 284.229L382.403 283.765C384.881 282.777 387.369 281.792 389.867 280.81L390.05 281.275C392.497 280.313 394.954 279.354 397.42 278.397L397.239 277.931C399.703 276.975 402.177 276.022 404.659 275.072L404.838 275.538C407.32 274.588 409.811 273.641 412.312 272.697L412.135 272.229C414.618 271.291 417.11 270.357 419.61 269.425L419.785 269.893C422.254 268.973 424.732 268.056 427.218 267.142L427.045 266.672C429.532 265.758 432.027 264.846 434.531 263.938L434.701 264.408C437.204 263.499 439.716 262.594 442.235 261.692L442.067 261.221C444.554 260.331 447.05 259.443 449.554 258.558L449.72 259.03C452.21 258.15 454.708 257.273 457.214 256.4L457.049 255.927C459.555 255.054 462.069 254.183 464.59 253.316L464.753 253.788C467.274 252.921 469.802 252.057 472.338 251.196L472.177 250.723C474.672 249.876 477.174 249.032 479.683 248.192L479.842 248.666C482.35 247.826 484.865 246.989 487.387 246.156L487.23 245.681C489.753 244.847 492.283 244.017 494.82 243.19L494.975 243.665C497.503 242.841 500.038 242.02 502.58 241.202L502.427 240.726C504.939 239.919 507.457 239.114 509.981 238.313L510.132 238.79C512.656 237.989 515.186 237.191 517.723 236.397L517.574 235.92C520.111 235.126 522.655 234.335 525.205 233.548L525.353 234.026C527.889 233.243 530.432 232.463 532.982 231.687L532.836 231.209C535.362 230.439 537.895 229.674 540.433 228.911L540.577 229.39C543.115 228.628 545.659 227.87 548.208 227.115L548.066 226.635C550.616 225.88 553.173 225.129 555.734 224.381L555.874 224.861C558.421 224.118 560.973 223.378 563.53 222.642L563.392 222.161C565.932 221.43 568.477 220.703 571.028 219.979L571.164 220.46C573.715 219.737 576.27 219.017 578.831 218.301L578.697 217.819C581.258 217.103 583.825 216.39 586.397 215.681L586.53 216.163C587.816 215.809 589.103 215.455 590.392 215.103C591.68 214.751 592.967 214.4 594.254 214.05L594.123 213.568C596.698 212.869 599.27 212.175 601.84 211.488L601.969 211.971C604.538 211.284 607.104 210.603 609.668 209.927L609.54 209.444C612.104 208.768 614.666 208.099 617.224 207.435L617.35 207.919C619.926 207.251 622.499 206.589 625.069 205.932L624.945 205.448C627.531 204.788 630.113 204.133 632.693 203.485L632.815 203.97C635.394 203.322 637.969 202.68 640.542 202.044L640.422 201.559C642.995 200.923 645.564 200.293 648.13 199.669L648.248 200.155C650.838 199.525 653.424 198.902 656.006 198.285L655.889 197.799C658.485 197.178 661.077 196.564 663.666 195.956L663.78 196.443C666.368 195.835 668.952 195.233 671.532 194.638L671.419 194.151C674 193.555 676.577 192.966 679.149 192.383L679.26 192.87C681.864 192.28 684.464 191.696 687.06 191.119L686.951 190.631C689.556 190.052 692.156 189.479 694.752 188.912L694.859 189.401C697.454 188.834 700.045 188.274 702.631 187.721L702.527 187.232C705.114 186.678 707.697 186.13 710.276 185.589L710.378 186.079C712.999 185.529 715.615 184.986 718.227 184.449L718.126 183.959C720.738 183.422 723.345 182.892 725.947 182.369L726.045 182.859C728.647 182.335 731.243 181.819 733.834 181.308L733.737 180.818C736.343 180.305 738.943 179.799 741.538 179.299L741.632 179.79C744.26 179.284 746.882 178.785 749.499 178.293L749.407 177.801C752.024 177.309 754.636 176.823 757.242 176.345L757.332 176.837C759.938 176.358 762.537 175.886 765.131 175.421L765.043 174.929C767.67 174.459 770.29 173.995 772.905 173.538L772.991 174.031C775.624 173.571 778.25 173.118 780.87 172.672L780.786 172.179C783.407 171.734 786.021 171.295 788.629 170.864L788.711 171.357C791.32 170.925 793.923 170.5 796.519 170.083L796.44 169.589C799.09 169.163 801.733 168.744 804.369 168.333L804.446 168.827C807.081 168.416 809.709 168.012 812.329 167.616L812.255 167.121C814.876 166.725 817.49 166.336 820.096 165.954L820.169 166.449C822.807 166.062 825.437 165.684 828.059 165.313L827.989 164.818C830.64 164.443 833.283 164.075 835.918 163.716L835.986 164.211C838.62 163.852 841.246 163.5 843.863 163.156L843.798 162.66C846.423 162.315 849.04 161.978 851.648 161.649L851.71 162.145C854.376 161.808 857.032 161.48 859.679 161.16L859.619 160.663C862.267 160.343 864.907 160.03 867.536 159.726L867.594 160.223C870.223 159.919 872.843 159.623 875.453 159.335L875.398 158.838C878.061 158.545 880.715 158.259 883.359 157.983L883.411 158.48C886.071 158.202 888.721 157.932 891.36 157.67L891.311 157.173C893.951 156.911 896.581 156.659 899.201 156.414L899.247 156.912C901.902 156.664 904.547 156.426 907.18 156.196L907.137 155.698C909.809 155.464 912.471 155.24 915.12 155.024L915.161 155.523C917.809 155.307 920.446 155.101 923.072 154.904L923.034 154.405C925.686 154.206 928.326 154.016 930.954 153.836L930.988 154.334C933.67 154.15 936.338 153.975 938.994 153.81L938.963 153.311C941.62 153.145 944.264 152.99 946.894 152.844L946.922 153.343C949.573 153.196 952.21 153.058 954.833 152.93L954.809 152.431C957.499 152.3 960.175 152.179 962.836 152.069L962.857 152.568C965.516 152.458 968.162 152.358 970.792 152.268L970.775 151.768C973.432 151.677 976.073 151.597 978.699 151.527L978.712 152.026C981.405 151.955 984.081 151.894 986.741 151.844L986.732 151.344C989.393 151.294 992.038 151.255 994.666 151.227L994.672 151.727C997.337 151.698 999.986 151.681 1002.62 151.675L1002.62 151.175C1005.31 151.169 1007.98 151.175 1010.64 151.192L1010.64 151.692C1013.29 151.71 1015.93 151.739 1018.54 151.78L1018.55 151.28C1021.23 151.322 1023.9 151.377 1026.54 151.443L1026.53 151.943C1029.21 152.011 1031.88 152.092 1034.52 152.185L1034.53 151.685C1037.18 151.779 1039.8 151.885 1042.4 152.004L1042.37 152.503C1045.08 152.627 1047.76 152.765 1050.42 152.916L1050.45 152.417C1053.12 152.569 1055.76 152.734 1058.38 152.914L1058.35 153.413C1061.01 153.596 1063.65 153.793 1066.27 154.004L1066.31 153.506C1069 153.724 1071.66 153.956 1074.29 154.204L1074.25 154.702C1076.88 154.95 1079.48 155.213 1082.06 155.491L1082.12 154.994C1084.82 155.286 1087.5 155.595 1090.14 155.92L1090.08 156.417C1092.72 156.742 1095.34 157.085 1097.92 157.444L1097.98 156.948C1100.66 157.321 1103.3 157.711 1105.91 158.119L1105.83 158.613C1108.48 159.028 1111.09 159.461 1113.67 159.913L1113.76 159.421C1116.4 159.885 1119.01 160.369 1121.58 160.873L1121.49 161.364C1124.13 161.882 1126.74 162.422 1129.3 162.982L1129.4 162.493C1132.03 163.067 1134.61 163.663 1137.14 164.28L1137.02 164.766C1139.65 165.406 1142.23 166.069 1144.75 166.755L1144.88 166.273C1147.48 166.979 1150.03 167.71 1152.53 168.466L1152.38 168.945C1154.96 169.727 1157.49 170.536 1159.95 171.372L1160.11 170.898C1162.69 171.769 1165.19 172.669 1167.63 173.598L1167.46 174.065C1169.96 175.017 1172.4 176 1174.76 177.012L1174.96 176.552C1177.48 177.631 1179.92 178.744 1182.28 179.891L1182.06 180.341C1184.48 181.517 1186.82 182.729 1189.07 183.978L1189.31 183.54C1191.68 184.859 1193.96 186.218 1196.14 187.617L1195.87 188.038C1198.17 189.509 1200.35 191.025 1202.42 192.584L1202.72 192.185C1204.89 193.817 1206.94 195.499 1208.86 197.228L1208.53 197.6C1210.52 199.397 1212.38 201.246 1214.11 203.146L1214.48 202.81C1216.3 204.822 1217.97 206.893 1219.48 209.022L1219.07 209.312C1220.62 211.494 1222.01 213.738 1223.22 216.042L1223.66 215.81C1224.9 218.172 1225.97 220.598 1226.85 223.089L1226.38 223.256C1226.82 224.496 1227.21 225.752 1227.56 227.024C1227.91 228.296 1228.21 229.577 1228.46 230.868L1228.95 230.772C1229.46 233.365 1229.78 235.995 1229.91 238.661L1229.41 238.686C1229.54 241.286 1229.5 243.921 1229.27 246.589L1229.77 246.631C1229.55 249.233 1229.17 251.865 1228.62 254.525L1228.13 254.425C1227.62 256.937 1226.96 259.476 1226.15 262.039L1226.63 262.189C1225.86 264.656 1224.95 267.145 1223.92 269.654L1223.45 269.463C1222.46 271.86 1221.36 274.276 1220.13 276.71L1220.58 276.935C1219.41 279.249 1218.14 281.579 1216.77 283.923L1216.34 283.671C1215.04 285.889 1213.64 288.122 1212.16 290.367L1212.58 290.643C1211.13 292.832 1209.59 295.032 1207.97 297.244L1207.57 296.948C1206.05 299.023 1204.45 301.108 1202.78 303.202L1203.17 303.514C1201.55 305.556 1199.85 307.607 1198.08 309.666L1197.7 309.34C1196 311.313 1194.24 313.295 1192.41 315.283L1192.78 315.621C1191.02 317.541 1189.2 319.468 1187.32 321.4L1186.96 321.051C1185.14 322.928 1183.26 324.81 1181.32 326.697L1181.67 327.055C1179.8 328.877 1177.89 330.702 1175.92 332.532L1175.58 332.166C1173.66 333.952 1171.69 335.741 1169.68 337.534L1170.01 337.908C1168.06 339.649 1166.06 341.394 1164.01 343.142L1163.69 342.762C1161.7 344.463 1159.67 346.167 1157.6 347.873L1157.92 348.259C1155.89 349.936 1153.81 351.616 1151.7 353.298L1151.39 352.907C1149.35 354.53 1147.27 356.155 1145.16 357.781L1145.47 358.177C1143.36 359.803 1141.21 361.43 1139.03 363.059L1138.73 362.658C1136.66 364.209 1134.55 365.761 1132.41 367.314L1132.7 367.719C1130.56 369.274 1128.39 370.829 1126.18 372.385L1125.9 371.977C1123.75 373.49 1121.58 375.004 1119.38 376.519L1119.66 376.931C1117.5 378.418 1115.31 379.906 1113.09 381.394L1112.81 380.979C1110.6 382.463 1108.36 383.947 1106.09 385.432L1106.37 385.85C1104.19 387.276 1101.99 388.701 1099.76 390.127L1099.49 389.706C1097.27 391.13 1095.02 392.554 1092.74 393.979L1093.01 394.402C1090.76 395.806 1088.5 397.209 1086.21 398.612L1085.95 398.185C1083.72 399.553 1081.46 400.919 1079.19 402.286L1079.44 402.714C1077.17 404.081 1074.87 405.448 1072.55 406.813L1072.29 406.382C1070.03 407.716 1067.74 409.049 1065.43 410.382L1065.68 410.815C1063.4 412.128 1061.11 413.441 1058.79 414.753L1058.54 414.318C1056.23 415.629 1053.89 416.939 1051.54 418.248L1051.78 418.685C1049.49 419.961 1047.17 421.236 1044.84 422.51L1044.6 422.071C1042.29 423.333 1039.96 424.593 1037.62 425.852L1037.85 426.292C1035.5 427.552 1033.14 428.81 1030.76 430.066L1030.52 429.624C1028.2 430.85 1025.86 432.074 1023.51 433.296L1023.74 433.74C1021.4 434.953 1019.04 436.165 1016.67 437.375L1016.44 436.93C1014.07 438.139 1011.69 439.347 1009.29 440.553L1009.51 441C1007.16 442.182 1004.79 443.363 1002.4 444.541L1002.18 444.093C999.821 445.259 997.446 446.424 995.057 447.587L995.276 448.037C992.886 449.2 990.481 450.361 988.061 451.521L987.845 451.07C985.462 452.213 983.064 453.353 980.652 454.491L980.866 454.944C978.486 456.067 976.094 457.188 973.688 458.307L973.477 457.854C971.072 458.972 968.654 460.089 966.223 461.203L966.431 461.657C964.015 462.765 961.585 463.87 959.143 464.973L958.938 464.518C956.544 465.599 954.139 466.677 951.721 467.754L951.924 468.211C949.506 469.287 947.075 470.362 944.633 471.434L944.432 470.976C941.99 472.048 939.537 473.118 937.071 474.185L937.27 474.644C934.857 475.688 932.433 476.729 929.998 477.769L929.802 477.309C927.374 478.345 924.934 479.379 922.484 480.41L922.678 480.871C920.227 481.903 917.765 482.932 915.292 483.959L915.101 483.497C912.655 484.512 910.198 485.525 907.731 486.535L907.92 486.998C905.483 487.996 903.034 488.992 900.576 489.985L900.389 489.521C897.932 490.514 895.464 491.504 892.987 492.492L893.172 492.956C890.694 493.944 888.206 494.929 885.708 495.911L885.525 495.445C883.078 496.407 880.621 497.367 878.155 498.323L878.336 498.79C875.872 499.746 873.398 500.699 870.915 501.649L870.736 501.182C868.254 502.132 865.763 503.079 863.263 504.024L863.44 504.491C860.957 505.429 858.465 506.364 855.964 507.296L855.79 506.827C853.32 507.748 850.843 508.665 848.357 509.579L848.529 510.048C846.042 510.963 843.547 511.874 841.044 512.783L840.873 512.313C838.37 513.221 835.859 514.126 833.339 515.029L833.508 515.499C831.02 516.39 828.524 517.278 826.021 518.162L825.854 517.691C823.364 518.571 820.866 519.448 818.361 520.321L818.525 520.793C816.019 521.667 813.506 522.538 810.984 523.405L810.821 522.932C808.301 523.8 805.772 524.664 803.237 525.524L803.397 525.998C800.902 526.845 798.4 527.688 795.891 528.529L795.732 528.055C793.224 528.895 790.709 529.731 788.187 530.565L788.344 531.04C785.821 531.873 783.291 532.704 780.755 533.531L780.6 533.056C778.071 533.88 775.536 534.701 772.994 535.518L773.147 535.994C770.636 536.802 768.118 537.607 765.593 538.408L765.442 537.931C762.918 538.732 760.388 539.529 757.851 540.323L758.001 540.8C755.463 541.595 752.919 542.385 750.369 543.173L750.222 542.695C747.685 543.478 745.142 544.258 742.593 545.034L742.739 545.512C740.212 546.281 737.68 547.047 735.141 547.809L734.997 547.33C732.46 548.092 729.916 548.851 727.366 549.606L727.508 550.085C724.958 550.84 722.402 551.592 719.84 552.34L719.7 551.86C717.154 552.603 714.602 553.343 712.044 554.079L712.183 554.559C709.643 555.29 707.097 556.018 704.546 556.741L704.41 556.26C701.86 556.984 699.304 557.704 696.743 558.42L696.878 558.902Z" stroke="#8C8CB1" stroke-dasharray="8 8"/>
                            <circle r="28" fill="#111235" fill-opacity="0.68">
                              <animateMotion dur="25s" repeatCount="indefinite">
                                <mpath xlink:href="#circlePath"/>
                              </animateMotion>
                            </circle>
                            <g transform="translate(-31.5, -8)">
                              <animateMotion dur="25s" repeatCount="indefinite">
                                <mpath xlink:href="#circlePath"/>
                              </animateMotion>
                              <path fill-rule="evenodd" clip-rule="evenodd" d="M39.5978 8.60135C36.1519 9.67652 33.5306 12.2914 32.4539 15.7299C32.2858 16.2655 31.5486 16.2655 31.3804 15.7299C30.3038 12.2914 27.6824 9.67652 24.2365 8.60135C23.6998 8.43358 23.6998 7.69798 24.2365 7.53021C27.6824 6.45585 30.3038 3.84092 31.3804 0.401676C31.5486 -0.133892 32.2858 -0.133892 32.4539 0.401676C33.5306 3.84092 36.1519 6.45585 39.5978 7.53021C40.1345 7.69798 40.1345 8.43358 39.5978 8.60135Z" fill="#ff715b"/>
                            </g>
                            <circle r="28" fill="#111235" fill-opacity="0.68">
                              <animateMotion dur="32s" begin="-4s" repeatCount="indefinite">
                                <mpath xlink:href="#circlePath_1"/>
                              </animateMotion>
                            </circle>
                            <g transform="translate(-31.5, -8)">
                              <animateMotion dur="32s" begin="-4s" repeatCount="indefinite">
                                <mpath xlink:href="#circlePath_1"/>
                              </animateMotion>
                              <path fill-rule="evenodd" clip-rule="evenodd" d="M39.5978 8.60135C36.1519 9.67652 33.5306 12.2914 32.4539 15.7299C32.2858 16.2655 31.5486 16.2655 31.3804 15.7299C30.3038 12.2914 27.6824 9.67652 24.2365 8.60135C23.6998 8.43358 23.6998 7.69798 24.2365 7.53021C27.6824 6.45585 30.3038 3.84092 31.3804 0.401676C31.5486 -0.133892 32.2858 -0.133892 32.4539 0.401676C33.5306 3.84092 36.1519 6.45585 39.5978 7.53021C40.1345 7.69798 40.1345 8.43358 39.5978 8.60135Z" fill="#ff715b"/>
                            </g>
                          </svg>