<svg width="1712" height="472" viewBox="0 0 1712 472" fill="none" xmlns="http://www.w3.org/2000/svg">
<g clip-path="url(#clip0_21_5)">
<path d="M413.831 0.393433V364.099L460.525 364.278V191.161H573.34V145.341H460.525V46.2132H607.38V0.393433H413.831ZM691.679 74.2043C708.61 74.2043 722.155 60.4762 722.155 43.7172C722.155 26.9582 708.432 13.2301 691.679 13.2301C674.748 13.2301 661.203 26.9582 661.203 43.7172C661.203 60.4762 674.926 74.2043 691.679 74.2043ZM667.976 120.024V364.099H714.67V120.024H667.976Z" fill="white"/>
<path fill-rule="evenodd" clip-rule="evenodd" d="M888.08 112.893C825.88 112.893 782.573 165.487 782.573 227.888C782.573 290.288 825.88 342.883 888.08 342.883C916.595 342.883 939.942 331.829 957.052 314.001V346.271C957.052 386.742 925.328 420.438 883.803 420.438C868.832 420.438 854.04 414.733 842.277 406.532L818.752 447.181C837.465 459.305 859.743 466.258 883.624 466.258C949.923 466.258 1003.57 412.593 1003.57 346.271V120.024H957.052V141.775C939.942 123.947 916.595 112.893 888.08 112.893ZM829.445 227.888C829.445 189.2 859.03 158.713 893.248 158.713C927.467 158.713 957.052 189.2 957.052 227.888C957.052 266.576 927.467 297.063 893.248 297.063C859.03 297.063 829.445 266.576 829.445 227.888Z" fill="white"/>
<path d="M1172.34 158.713C1144.72 158.713 1122.26 182.246 1122.26 209.881V364.099H1075.57V120.024H1122.26V142.31C1135.99 124.66 1156.13 112.893 1182.5 112.893C1215.3 112.893 1240.42 129.117 1255.04 154.077C1271.26 130.008 1297.63 112.893 1329.54 112.893C1382.82 112.893 1415.97 155.86 1416.15 208.99V364.099H1369.46V209.703C1369.46 182.068 1347 158.534 1319.38 158.534C1291.75 158.534 1269.3 182.068 1269.3 209.703V364.099H1222.6V209.703C1222.42 182.068 1199.97 158.713 1172.34 158.713Z" fill="white"/>
<path fill-rule="evenodd" clip-rule="evenodd" d="M1665.31 147.659C1644.45 126.086 1615.94 112.893 1582.97 112.893C1513.46 112.893 1463.92 171.906 1463.92 242.151C1463.92 312.396 1513.28 371.409 1582.97 371.409C1615.94 371.409 1644.45 358.038 1665.31 336.643V364.099H1712V120.024H1665.31V147.659ZM1510.79 242.151C1510.79 195.618 1546.43 158.713 1588.14 158.713C1629.66 158.713 1665.48 195.44 1665.48 242.151C1665.48 288.684 1629.84 325.589 1588.14 325.589C1546.43 325.411 1510.79 288.684 1510.79 242.151Z" fill="white"/>
<path d="M157.014 236.089C157.014 192.765 192.123 157.464 235.61 157.464C278.917 157.464 314.205 192.587 314.205 236.089C314.205 279.413 279.096 314.714 235.61 314.714C192.302 314.714 157.014 279.413 157.014 236.089Z" fill="#1ABCFE"/>
<path d="M0 393.16C0 349.836 35.1097 314.536 78.5959 314.536H157.192V393.16C157.192 436.484 122.082 471.785 78.5959 471.785C35.1097 471.785 0 436.662 0 393.16Z" fill="#0ACF83"/>
<path d="M157.014 0.393436V157.464H235.61C278.917 157.464 314.205 122.342 314.205 78.8398C314.205 35.516 279.096 0.215149 235.61 0.215149H157.014V0.393436Z" fill="#FF7262"/>
<path d="M0 79.0181C0 122.342 35.1097 157.643 78.5959 157.643H157.192V0.393433H78.5959C35.1097 0.393433 0 35.516 0 79.0181Z" fill="#F24E1E"/>
<path d="M0 236.089C0 279.413 35.1097 314.714 78.5959 314.714H157.192V157.464H78.5959C35.1097 157.464 0 192.765 0 236.089Z" fill="#A259FF"/>
</g>
<defs>
<clipPath id="clip0_21_5">
<rect width="1712" height="472" fill="white"/>
</clipPath>
</defs>
</svg>
